# xmcd
#
# Track frame offsets:
#	150
#	11845
#	24362
#	78700
#	89747
#	103610
#	116392
#	126712
#	140277
#	153107
#	166290
#	178045
#	191542
#	203055
#	216570
#
# Disc length: 3083 seconds
# Revision: 0
# Processed by: cddbd v1.5.2PL0 Copyright (c) Steve Scherf et al.
# Submitted via: dBpowerAMP V12.0
#
DISCID=d20c090f
DTITLE=Sonny Boy Williamson  - Bummer Road
DYEAR=1969
DGENRE=Blues
TTITLE0=She Got Next to Me [1958]
TTITLE1=Santa Claus [1960]
TTITLE2=Little Village [1957]
TTITLE3=Your Funeral and My Trial [1958]
TTITLE4=Lonesome Cabin [1960]
TTITLE5=I Can't Do Without You [1960]
TTITLE6=Temperature 110 [1960]
TTITLE7=Unseen Eye [1957]
TTITLE8=Keep Your Hands Out of My Pockets [1958]
TTITLE9=Open Road [1960]
TTITLE10=This Old Life [1960]
TTITLE11=Your Imagination [1956]
TTITLE12=The Key to Your Door [1956]
TTITLE13=Unseeing Eye [1959]
TTITLE14=I Can't Be Alone [1964]
EXTD=
EXTT0=
EXTT1=
EXTT2=
EXTT3=
EXTT4=
EXTT5=
EXTT6=
EXTT7=
EXTT8=
EXTT9=
EXTT10=
EXTT11=
EXTT12=
EXTT13=
EXTT14=
PLAYORDER=
